<svg id="Capa_1" data-name="Capa 1" xmlns="http://www.w3.org/2000/svg" viewBox="0 0 283.46 283.46"><title>icons</title><path d="M212.66,216.47,200.92,107.05a3.18,3.18,0,0,0-3.14-2.79h-22.1v-7a33.66,33.66,0,1,0-67.31,0v7H85.68a3.18,3.18,0,0,0-3.13,2.79L70.8,216.44a3.11,3.11,0,0,0,.72,2.43,2.75,2.75,0,0,0,2.23,1h136a2.76,2.76,0,0,0,2.23-1A3.15,3.15,0,0,0,212.66,216.47ZM111.51,130.28a3.52,3.52,0,1,1,3.51-3.51A3.48,3.48,0,0,1,111.51,130.28Zm-3.14-12.83-.26.1a9.59,9.59,0,1,0,6.4,0l-.26-.1v-7.11H169v7.11l-.26.1a9.59,9.59,0,1,0,6.4,0l-.26-.1v-7.11h20.69l11,103.09H77.43l11-103.09h19.9Zm64.17,12.83a3.52,3.52,0,1,1,3.52-3.51A3.47,3.47,0,0,1,172.54,130.28Zm-57.9-26v-7a27.39,27.39,0,1,1,54.77,0v7Z"/></svg>